PathFileType	4	(X/Y/Z)	trial_0_0-299.trc
DataRate	CameraRate	NumFrames	NumMarkers	Units	OrigDataRate	OrigDataStartFrame	OrigNumFrames
60	60	9	27	m	60	37	299
Frame#	Time	RHip			RKnee			RAnkle			RBigToe			RSmallToe			RHeel			LHip			LKnee			LAnkle			LBigToe			LSmallToe			LHeel			Neck			Head			Nose			RShoulder			RElbow			RWrist			RThumb			RIndex			RPinky			LShoulder			LElbow			LWrist			LThumb			LIndex			LPinky		
		X1	Y1	Z1	X2	Y2	Z2	X3	Y3	Z3	X4	Y4	Z4	X5	Y5	Z5	X6	Y6	Z6	X7	Y7	Z7	X8	Y8	Z8	X9	Y9	Z9	X10	Y10	Z10	X11	Y11	Z11	X12	Y12	Z12	X13	Y13	Z13	X14	Y14	Z14	X15	Y15	Z15	X16	Y16	Z16	X17	Y17	Z17	X18	Y18	Z18	X19	Y19	Z19	X20	Y20	Z20	X21	Y21	Z21	X22	Y22	Z22	X23	Y23	Z23	X24	Y24	Z24	X25	Y25	Z25	X26	Y26	Z26	X27	Y27	Z27
38	0.6333333333333333	1.0043951207449522	1.7399604718065493	0.27883614449757715	1.6066009718949537	1.7858971687771805	0.23231104736465452	2.133795042036222	1.8005407576667605	0.18104024000771657	0.08756699802888541	0.07178598078028002	0.0035468395536211077	2.4421127429061027	1.9952457326653872	0.23003697275722249	2.1753274681715156	1.7825054989233713	0.1892126229613229	0.0	0.0	0.0	0.0	0.0	0.0	0.0	0.0	0.0	0.0	0.0	0.0	0.0	0.0	0.0	1.584333248089358	1.3392054440137517	0.016158010300586636	0.0	0.0	0.0	0.0	0.0	0.0	0.0	0.0	0.0	0.0	0.0	0.0	0.6927902347893394	1.6493573096559047	0.452712372223596	0.0	0.0	0.0	0.0	0.0	0.0	0.0	0.0	0.0	0.0	0.0	0.0	0.0	0.0	0.0	0.0	0.0	0.0	0.0	0.0	0.0	0.0	0.0	0.0	0.0	0.0	0.0	0.0	0.0	0.0
39	0.65	1.0051992403330214	1.7400306478462872	0.2790854112765995	1.606122640099852	1.785703162249811	0.23250167109158154	2.132672531993814	1.800027275220532	0.1814965403605166	0.02688786150931448	0.02204186114075308	0.0010889787275803313	2.4419642844131895	1.994992144659518	0.2301099835103846	2.1752690646264363	1.7822642345741073	0.1892652931173679	0.0	0.0	0.0	0.0	0.0	0.0	0.0	0.0	0.0	0.0	0.0	0.0	0.0	0.0	0.0	1.5615829752292159	1.3198935957140876	0.015915151139194044	0.0	0.0	0.0	0.0	0.0	0.0	0.0	0.0	0.0	0.0	0.0	0.0	0.6927737869285908	1.6493193075613592	0.4527203303153623	0.0	0.0	0.0	0.0	0.0	0.0	0.0	0.0	0.0	0.0	0.0	0.0	0.0	0.0	0.0	0.0	0.0	0.0	0.0	0.0	0.0	0.0	0.0	0.0	0.0	0.0	0.0	0.0	0.0	0.0
40	0.6666666666666666	1.0056925145172901	1.7400563567007317	0.27921706392237	1.6053399461111524	1.7853863970743813	0.23278962772848055	2.132064545956457	1.7997053881716627	0.18175059275786168	0.006494878992247934	0.005324230847547155	0.00026302770012460205	2.4418618727920824	1.9946402688350229	0.2301781663656179	2.1753011331399197	1.782079517722725	0.18928393697221635	0.0	0.0	0.0	0.0	0.0	0.0	0.0	0.0	0.0	0.0	0.0	0.0	0.0	0.0	0.0	1.424607731776917	1.2040502924385854	0.01451734273425863	0.0	0.0	0.0	0.0	0.0	0.0	0.0	0.0	0.0	0.0	0.0	0.0	0.692728807025184	1.649316431745767	0.4527199422472541	0.0	0.0	0.0	0.0	0.0	0.0	0.0	0.0	0.0	0.0	0.0	0.0	0.0	0.0	0.0	0.0	0.0	0.0	0.0	0.0	0.0	0.0	0.0	0.0	0.0	0.0	0.0	0.0	0.0	0.0
41	0.6833333333333333	1.005919684273381	1.7400380839388516	0.27927483162197586	1.6042827736128267	1.78496071293704	0.23316767156598456	2.131809930882995	1.7995273753375192	0.18186623038062671	0.0013963326447652008	0.0011444541353927138	5.653674147609684e-05	2.441589450113734	1.9939376840505765	0.230349984243084	2.17534425901059	1.7819525839363963	0.18929543311389643	0.0	0.0	0.0	0.0	0.0	0.0	0.0	0.0	0.0	0.0	0.0	0.0	0.0	0.0	0.0	1.3017476264617631	1.1002699779596066	0.013286631517323986	0.0	0.0	0.0	0.0	0.0	0.0	0.0	0.0	0.0	0.0	0.0	0.0	0.6926413588282604	1.6493195209390157	0.4527229729147558	0.0	0.0	0.0	0.0	0.0	0.0	0.0	0.0	0.0	0.0	0.0	0.0	0.0	0.0	0.0	0.0	0.0	0.0	0.0	0.0	0.0	0.0	0.0	0.0	0.0	0.0	0.0	0.0	0.0	0.0
42	0.7	1.0059956309849385	1.7399924221476295	0.2793014902982102	1.6031110053348363	1.784493195948401	0.23357703238242575	2.1317274034882034	1.799437785126854	0.18191178725041013	0.0012329470849732794	0.0010094780927718408	4.987489216883183e-05	2.440901604226168	1.992493382904498	0.23076164746158687	2.1753560107033554	1.7818944607717047	0.18930862900577225	0.0	0.0	0.0	0.0	0.0	0.0	0.0	0.0	0.0	0.0	0.0	0.0	0.0	0.0	0.0	1.3162173759753368	1.1127702262016084	0.013484412024182126	0.0	0.0	0.0	0.0	0.0	0.0	0.0	0.0	0.0	0.0	0.0	0.0	0.6925247363969278	1.6493253630201323	0.45273046551689516	0.0	0.0	0.0	0.0	0.0	0.0	0.0	0.0	0.0	0.0	0.0	0.0	0.0	0.0	0.0	0.0	0.0	0.0	0.0	0.0	0.0	0.0	0.0	0.0	0.0	0.0	0.0	0.0	0.0	0.0
43	0.7166666666666667	1.0059870546259901	1.7399390078570467	0.2793182433812701	1.602047202146275	1.784054424461375	0.23392278883024387	2.13171931428171	1.7994003357846327	0.18192382431483614	0.0054292359591220024	0.004444404269091179	0.0002195951749306806	2.439629643976643	1.9900248916926513	0.23150011655155972	2.175322738441772	1.781905644112819	0.18932424457129587	0.0	0.0	0.0	0.0	0.0	0.0	0.0	0.0	0.0	0.0	0.0	0.0	0.0	0.0	0.0	1.4850223643655205	1.2559068800366566	0.015277479584454592	0.0	0.0	0.0	0.0	0.0	0.0	0.0	0.0	0.0	0.0	0.0	0.0	0.6924070466330318	1.6493365067539472	0.45274010137886644	0.0	0.0	0.0	0.0	0.0	0.0	0.0	0.0	0.0	0.0	0.0	0.0	0.0	0.0	0.0	0.0	0.0	0.0	0.0	0.0	0.0	0.0	0.0	0.0	0.0	0.0	0.0	0.0	0.0	0.0
44	0.7333333333333333	1.0058829745638902	1.739889758865103	0.27932166865952923	1.6012522973529184	1.7836389476213905	0.23408898246437287	2.1317885997404	1.799402866136342	0.18190278802186916	0.02147304476516681	0.017577959871931368	0.0008685157648340073	2.437835154468889	1.9867467255095759	0.2324823821469408	2.175258118320129	1.7819620009713413	0.18934174672617948	0.0	0.0	0.0	0.0	0.0	0.0	0.0	0.0	0.0	0.0	0.0	0.0	0.0	0.0	0.0	1.7163589724980213	1.4519446037183885	0.01771097488072302	0.0	0.0	0.0	0.0	0.0	0.0	0.0	0.0	0.0	0.0	0.0	0.0	0.692309854346356	1.649353610489067	0.45275032654127667	0.0	0.0	0.0	0.0	0.0	0.0	0.0	0.0	0.0	0.0	0.0	0.0	0.0	0.0	0.0	0.0	0.0	0.0	0.0	0.0	0.0	0.0	0.0	0.0	0.0	0.0	0.0	0.0	0.0	0.0
45	0.75	1.0055962396505802	1.7398392450971367	0.2792856856064442	1.6007384805774167	1.7831041689457203	0.23392848785785492	2.1320373340656684	1.7994689633371042	0.18181090721204055	0.06614163428323794	0.054143928167128035	0.0026752168923926396	2.4357782910342842	1.9834228607237194	0.23343587414830164	2.1751993989984753	1.7820215174682952	0.1893595422617341	0.0	0.0	0.0	0.0	0.0	0.0	0.0	0.0	0.0	0.0	0.0	0.0	0.0	0.0	0.0	1.8970398346657549	1.6049693460024679	0.01960438386430588	0.0	0.0	0.0	0.0	0.0	0.0	0.0	0.0	0.0	0.0	0.0	0.0	0.6922384728274312	1.6493718235280745	0.45276146055605804	0.0	0.0	0.0	0.0	0.0	0.0	0.0	0.0	0.0	0.0	0.0	0.0	0.0	0.0	0.0	0.0	0.0	0.0	0.0	0.0	0.0	0.0	0.0	0.0	0.0	0.0	0.0	0.0	0.0	0.0
46	0.7666666666666667	1.0049742683948417	1.7397640550886275	0.2791682545119819	1.6004176195554267	1.7822008266496532	0.23325139184794863	2.1326395616045937	1.7996629135281128	0.18157901221884057	0.15866553238466669	0.1298845315984527	0.00641751170916414	2.4336225235315867	1.980842696290218	0.23406510373678321	2.175188005100861	1.7820480850264286	0.18937433969129547	0.0	0.0	0.0	0.0	0.0	0.0	0.0	0.0	0.0	0.0	0.0	0.0	0.0	0.0	0.0	1.959741038088194	1.657846773147656	0.020249374677530314	0.0	0.0	0.0	0.0	0.0	0.0	0.0	0.0	0.0	0.0	0.0	0.0	0.6921879942567963	1.6493835788518734	0.4527740214429925	0.0	0.0	0.0	0.0	0.0	0.0	0.0	0.0	0.0	0.0	0.0	0.0	0.0	0.0	0.0	0.0	0.0	0.0	0.0	0.0	0.0	0.0	0.0	0.0	0.0	0.0	0.0	0.0	0.0	0.0
